<svg xmlns="http://www.w3.org/2000/svg" xmlns:xlink="http://www.w3.org/1999/xlink" version="1.1" x="0px" y="0px" viewBox="0 0 90 112.5" enable-background="new 0 0 90 90" xml:space="preserve" transform="rotate(45)"><path fill="#FFFFFF" d="M88.691,45.985c0-1.944-1.583-3.527-3.527-3.527H69.243c-0.34-1.439-1.633-2.515-3.175-2.515  c-1.301,0-2.424,0.767-2.948,1.87c-0.525-1.104-1.647-1.87-2.949-1.87c-1.301,0-2.424,0.767-2.948,1.87  c-0.525-1.104-1.647-1.87-2.948-1.87c-1.542,0-2.835,1.075-3.176,2.515h-3.786c-0.34-1.439-1.633-2.515-3.175-2.515  c-1.301,0-2.424,0.767-2.948,1.87c-0.525-1.104-1.647-1.87-2.949-1.87s-2.424,0.767-2.949,1.87c-0.524-1.104-1.647-1.87-2.948-1.87  c-1.542,0-2.835,1.075-3.175,2.515h-8.009c0.014-0.178,0.022-0.357,0.022-0.539v-1.176H6.975v1.176c0,0.182,0.009,0.361,0.023,0.539  H4.836c-1.945,0-3.527,1.583-3.527,3.527v0.544c0,1.944,1.582,3.527,3.527,3.527h80.327c0.002,0,0.005-0.001,0.007-0.001  c0.002,0,0.005,0.001,0.007,0.001c1.938,0,3.514-1.576,3.514-3.514c0-0.002,0-0.005,0-0.007c0-0.003,0-0.005,0-0.007V45.985z   M85.17,47.704c-0.638-0.004-1.155-0.523-1.155-1.161c0-0.641,0.521-1.162,1.162-1.162c0.639,0,1.158,0.518,1.162,1.155  C86.335,47.179,85.813,47.7,85.17,47.704z M68.911,44.81h13.213c-0.292,0.512-0.461,1.103-0.461,1.733  c0,0.407,0.073,0.798,0.202,1.162H67.243v-1.453C67.952,45.978,68.541,45.465,68.911,44.81z M66.067,42.295  c0.504,0,0.915,0.41,0.915,0.914c0,0.505-0.41,0.914-0.915,0.914s-0.915-0.409-0.915-0.914  C65.153,42.705,65.563,42.295,66.067,42.295z M63.119,44.605c0.357,0.751,0.992,1.345,1.772,1.646v1.453h-3.545v-1.453  C62.127,45.95,62.761,45.356,63.119,44.605z M60.17,42.295c0.504,0,0.915,0.41,0.915,0.914c0,0.505-0.411,0.914-0.915,0.914  c-0.504,0-0.915-0.409-0.915-0.914C59.256,42.705,59.666,42.295,60.17,42.295z M57.222,44.605c0.357,0.751,0.992,1.345,1.772,1.646  v1.453h-3.545v-1.453C56.23,45.95,56.865,45.356,57.222,44.605z M54.274,42.295c0.504,0,0.914,0.41,0.914,0.914  c0,0.505-0.41,0.914-0.914,0.914c-0.433,0-0.809-0.305-0.896-0.727c-0.013-0.061-0.019-0.124-0.019-0.188  C53.359,42.705,53.77,42.295,54.274,42.295z M46.98,44.81h4.451c0.373,0.659,0.964,1.169,1.667,1.442v1.453h-7.786v-1.453  C46.021,45.978,46.61,45.465,46.98,44.81z M44.137,42.295c0.504,0,0.915,0.41,0.915,0.914c0,0.505-0.411,0.914-0.915,0.914  c-0.504,0-0.915-0.409-0.915-0.914C43.222,42.705,43.632,42.295,44.137,42.295z M41.188,44.605c0.357,0.751,0.992,1.345,1.772,1.646  v1.453h-3.545v-1.453C40.196,45.95,40.831,45.356,41.188,44.605z M38.24,42.295c0.504,0,0.915,0.41,0.915,0.914  c0,0.505-0.411,0.914-0.915,0.914c-0.504,0-0.915-0.409-0.915-0.914C37.325,42.705,37.735,42.295,38.24,42.295z M35.291,44.605  c0.358,0.751,0.992,1.345,1.773,1.646v1.453h-3.545v-1.453C34.299,45.95,34.934,45.356,35.291,44.605z M32.343,42.295  c0.504,0,0.915,0.41,0.915,0.914c0,0.505-0.41,0.914-0.915,0.914c-0.504,0-0.915-0.409-0.915-0.914  C31.428,42.705,31.839,42.295,32.343,42.295z M20.564,44.81h8.935c0.37,0.655,0.959,1.168,1.668,1.442v1.453H18.191  C19.218,46.973,20.043,45.974,20.564,44.81z M12.12,43.095c0.4,0.664,1.126,1.11,1.958,1.11c0.832,0,1.558-0.446,1.958-1.11h2.646  c-0.525,2.053-2.39,3.576-4.604,3.576c-2.215,0-4.08-1.523-4.604-3.576H12.12z M3.661,46.529v-0.544  c0-0.647,0.527-1.176,1.176-1.176h2.756c0.521,1.164,1.345,2.163,2.373,2.896H4.836C4.188,47.705,3.661,47.178,3.661,46.529z"></path></svg>
