<?xml version="1.0" encoding="iso-8859-1"?>
<!-- Uploaded to: SVG Repo, www.svgrepo.com, Generator: SVG Repo Mixer Tools -->
<svg fill="#000000" height="800px" width="800px" version="1.1" id="Layer_1" xmlns="http://www.w3.org/2000/svg" xmlns:xlink="http://www.w3.org/1999/xlink" 
	 viewBox="0 0 512 512" xml:space="preserve">
<g>
	<g>
		<path d="M465.61,6.739H332.93c-25.574,0-46.382,20.807-46.382,46.382c0,15.357,10.408,28.319,24.539,32.227l30.275,48.685
			c7.248,11.654,12.537,24.314,15.751,37.505c-27.961-17.742-61.096-28.032-96.592-28.032c-99.692,0-180.796,81.104-180.796,180.796
			c0,34.178,9.565,67.146,27.392,95.629H62.909c-17.547,0-32.65,10.651-39.195,25.824h-6.873C7.541,445.753,0,453.294,0,462.595
			c0,9.301,7.541,16.842,16.842,16.842h6.873c6.546,15.174,21.648,25.824,39.195,25.824h197.612c1.434,0,2.878-0.072,4.303-0.216
			c47.195-1.105,91.431-20.306,124.641-54.12c33.438-34.045,51.918-79.016,51.918-126.626c0-12.235-1.246-24.187-3.492-35.747
			v-40.001v-46.538c0-24.051,6.649-47.559,19.35-67.984l9.381-15.136l20.847-33.548C501.6,81.44,512,68.477,512,53.12
			C512,27.545,491.186,6.739,465.61,6.739z M66.245,471.577h-3.336c-4.953,0-8.982-4.03-8.982-8.982c0-4.953,4.03-8.982,8.982-8.982
			h3.336V471.577z M263.394,471.385c-0.583,0.01-1.163,0.052-1.743,0.124c-0.368,0.046-0.748,0.068-1.13,0.068H99.929v-17.965
			h41.402c6.723,0,12.803-3.999,15.465-10.175c2.662-6.175,1.396-13.341-3.22-18.23c-25.902-27.434-40.167-63.271-40.167-100.908
			c0-81.118,65.995-147.112,147.112-147.112s147.112,65.995,147.112,147.112C407.634,403.877,342.928,469.86,263.394,471.385z
			 M428.638,116.193c-16.025,25.767-24.431,55.477-24.431,85.822v12.517c-3.368-3.998-6.347-7.871-9.727-11.596
			c0.017-0.307,0.015-0.61,0.015-0.921c0-30.344-8.486-60.054-24.511-85.822l-18.476-29.735h95.525L428.638,116.193z
			 M320.235,52.773c0.131-6.737,5.776-12.351,12.695-12.351h132.681c6.919,0,12.562,5.614,12.695,12.351H320.235z"/>
	</g>
</g>
<g>
	<g>
		<path d="M260.522,195.152c-71.212,0-129.148,57.935-129.148,129.147s57.936,129.148,129.148,129.148
			s129.147-57.935,129.147-129.148S331.734,195.152,260.522,195.152z M205.472,402.222c-7.86-5.513-14.696-12.61-20.519-19.347
			h20.519V402.222z M205.472,349.192h-37.199c-2.087-7.86-3.215-16.047-3.215-24.533c0-3.092,0.161-6.905,0.449-9.151h39.965
			V349.192z M272.84,418.936c-4.491,0.526-8.147,0.826-12.335,0.826c-7.413,0-14.614-0.877-21.545-2.484
			c0.112-0.787,0.196-1.585,0.196-2.404v-32h33.684V418.936z M272.84,349.192h-33.684v-33.684h33.684V349.192z M241.843,281.824
			c3.001-4.491,8.227-7.77,14.175-7.77c5.949,0,11.174,3.279,14.175,7.77H241.843z M306.524,407.896v-26.232
			c23.579-4.368,41.286-24.973,41.286-49.674c0-24.946-18.164-45.716-41.962-49.799c-3.992-23.909-24.812-42.008-49.835-42.008
			c-24.766,0-45.407,18.062-49.702,41.641h-31.057c15.73-31.438,48.032-52.801,85.266-52.801c52.639,0,95.447,42.731,95.447,95.37
			C355.968,360.348,335.716,391.618,306.524,407.896z M306.524,346.055v-28.127c4.491,3.018,7.586,8.192,7.586,14.063
			C314.109,337.862,311.015,343.034,306.524,346.055z"/>
	</g>
</g>
</svg>