<svg fill="#000000" height="800px" width="800px" version="1.1" id="Capa_1" xmlns="http://www.w3.org/2000/svg" xmlns:xlink="http://www.w3.org/1999/xlink" viewBox="0 0 59.439 59.439" xml:space="preserve" transform="rotate(90)">
<path d="M57.345,2.492l-0.396-0.396C55.598,0.745,53.802,0,51.892,0c-1.104,0-2.209,0.261-3.198,0.755l-0.77,0.385
	c-1.447,0.724-2.618,1.933-3.297,3.404l-4.146,9l-1.546,1.537l-0.788-0.788C37.959,14.106,37.705,14,37.439,14h-2
	c-0.266,0-0.52,0.105-0.707,0.293l-1,1c-0.188,0.188-0.293,0.441-0.293,0.707v2c0,0.266,0.105,0.52,0.293,0.707l0.773,0.773
	l-0.588,0.584l-0.771-0.771C32.959,19.106,32.705,19,32.439,19h-2c-0.266,0-0.52,0.105-0.707,0.293l-1,1
	c-0.188,0.188-0.293,0.441-0.293,0.707v2c0,0.266,0.105,0.52,0.293,0.707l0.757,0.757l-0.588,0.584l-0.755-0.755
	C27.959,24.106,27.705,24,27.439,24h-2c-0.266,0-0.52,0.105-0.707,0.293l-1,1c-0.188,0.188-0.293,0.441-0.293,0.707v2
	c0,0.266,0.105,0.52,0.293,0.707l0.74,0.74l-0.588,0.584l-0.739-0.739C22.959,29.106,22.705,29,22.439,29h-2
	c-0.266,0-0.52,0.105-0.707,0.293l-1,1c-0.188,0.188-0.293,0.441-0.293,0.707v2c0,0.266,0.105,0.52,0.293,0.707l0.724,0.724
	l-0.588,0.584l-0.722-0.722C17.959,34.106,17.705,34,17.439,34h-2c-0.266,0-0.52,0.105-0.707,0.293l-1,1
	c-0.188,0.188-0.293,0.441-0.293,0.707v2c0,0.266,0.105,0.52,0.293,0.707l0.708,0.708L13.853,40l-0.706-0.706
	C12.959,39.106,12.705,39,12.439,39h-2c-0.266,0-0.52,0.105-0.707,0.293l-1,1C8.545,40.481,8.439,40.735,8.439,41v2
	c0,0.266,0.105,0.52,0.293,0.707l0.692,0.692l-4.125,4.099l-0.134-0.132c-0.973-0.965-2.555-0.962-3.527,0.009
	c-0.474,0.475-0.733,1.104-0.731,1.775c0.002,0.669,0.265,1.297,0.741,1.769l1.176,1.163l-2.091,2.091C0.26,55.645,0,56.272,0,56.94
	s0.26,1.295,0.732,1.768c0.487,0.487,1.127,0.731,1.768,0.731s1.28-0.244,1.768-0.731l2.109-2.109l1.126,1.115
	c0.486,0.48,1.122,0.72,1.759,0.72c0.641,0,1.281-0.243,1.768-0.729c0.474-0.474,0.733-1.104,0.732-1.773
	c-0.002-0.671-0.266-1.3-0.742-1.771l-0.036-0.036l8.34-8.34l1.652,1.652c0.195,0.195,0.451,0.293,0.707,0.293
	s0.512-0.098,0.707-0.293l4.361-4.361c0.001-0.001,0.002-0.001,0.003-0.002l8.485-8.485c0.391-0.391,0.391-1.023,0-1.414
	l-1.652-1.653l12.563-12.563l8.789-4.144c1.445-0.681,2.635-1.843,3.348-3.271l0.398-0.796c0.494-0.989,0.755-2.095,0.755-3.198
	C59.439,5.638,58.695,3.842,57.345,2.492z M35.439,16.415L35.854,16h1.172l0.414,0.414v0.567v0.604L37.025,18h-0.618h-0.554
	l-0.414-0.414V16.415z M30.439,21.415L30.854,21h1.172l0.414,0.414v0.535v0.637L32.025,23h-0.65h-0.521l-0.414-0.414V21.415z
	 M25.439,26.415L25.854,26h1.172l0.414,0.414v0.502v0.67L27.025,28h-0.684h-0.488l-0.414-0.414V26.415z M20.439,31.415L20.854,31
	h1.172l0.414,0.414v0.47v0.702L22.025,33H21.31h-0.456l-0.414-0.414V31.415z M15.439,36.415L15.854,36h1.172l0.414,0.414v0.438
	v0.734L17.025,38h-0.748h-0.424l-0.414-0.414V36.415z M10.439,41.415L10.854,41h1.172l0.414,0.414v0.405v0.767L12.025,43h-0.781
	h-0.391l-0.414-0.414V41.415z M4.955,55.192l-2.102,2.102c-0.195,0.195-0.512,0.195-0.707,0c-0.194-0.195-0.194-0.512,0-0.707
	l2.098-2.098l0.7,0.693L4.955,55.192z M9.615,56.29c-0.194,0.193-0.51,0.195-0.706,0.002l-1.832-1.813c0,0,0-0.001,0-0.001
	l-2.132-2.111c-0.001-0.001-0.002-0.001-0.003-0.002l-1.888-1.868c-0.128-0.127-0.147-0.275-0.147-0.353
	c0-0.078,0.019-0.229,0.146-0.356c0.098-0.097,0.225-0.146,0.353-0.146s0.255,0.048,0.353,0.145l5.855,5.794
	c0.128,0.127,0.147,0.276,0.148,0.354C9.762,56.012,9.743,56.162,9.615,56.29z M21.682,45.314l-0.945-0.945l2.95-2.95l0.945,0.945
	L21.682,45.314z M28.753,38.243l-2.708,2.708l-0.945-0.945l2.707-2.707L28.753,38.243z M33.117,33.879l-2.95,2.95l-0.945-0.945
	l2.95-2.95L33.117,33.879z M56.896,9.852l-0.398,0.797c-0.514,1.028-1.37,1.865-2.411,2.355l-8.947,4.218
	c-0.104,0.049-0.199,0.115-0.28,0.197L32.172,30.106l-1.176-1.176c-0.391-0.391-1.023-0.391-1.414,0s-0.391,1.023,0,1.414
	l1.176,1.176l-2.95,2.95l-1.176-1.176c-0.391-0.391-1.023-0.391-1.414,0s-0.391,1.023,0,1.414l1.176,1.176l-2.707,2.707
	l-1.176-1.176c-0.391-0.391-1.023-0.391-1.414,0s-0.391,1.023,0,1.414l1.176,1.176l-2.95,2.95l-1.176-1.176
	c-0.391-0.391-1.023-0.391-1.414,0s-0.391,1.023,0,1.414l1.176,1.176l-8.347,8.347l-1.547-1.531l-1.294-1.28L11.656,45h0.783
	c0.266,0,0.52-0.105,0.707-0.293l1-1c0.188-0.188,0.293-0.441,0.293-0.707v-0.765L16.689,40h0.75c0.266,0,0.52-0.105,0.707-0.293
	l1-1c0.188-0.188,0.293-0.441,0.293-0.707v-0.732L21.722,35h0.718c0.266,0,0.52-0.105,0.707-0.293l1-1
	c0.188-0.188,0.293-0.441,0.293-0.707v-0.7l2.314-2.3h0.686c0.266,0,0.52-0.105,0.707-0.293l1-1
	c0.188-0.188,0.293-0.441,0.293-0.707v-0.668L31.787,25h0.652c0.266,0,0.52-0.105,0.707-0.293l1-1
	c0.188-0.188,0.293-0.441,0.293-0.707v-0.635L36.819,20h0.62c0.266,0,0.52-0.105,0.707-0.293l1-1
	c0.188-0.188,0.293-0.441,0.293-0.707v-0.603l2.579-2.563c0.084-0.084,0.153-0.183,0.203-0.291l4.222-9.163
	c0.489-1.061,1.333-1.931,2.375-2.452l0.77-0.385C50.3,2.189,51.097,2,51.892,2c1.376,0,2.67,0.536,3.643,1.509l0.396,0.396
	c0.973,0.973,1.509,2.267,1.509,3.643C57.439,8.343,57.251,9.14,56.896,9.852z"></path>
</svg>