<?xml version="1.0" encoding="utf-8"?>

<!-- Uploaded to: SVG Repo, www.svgrepo.com, Generator: SVG Repo Mixer Tools -->
<svg version="1.1" id="Icons" xmlns="http://www.w3.org/2000/svg" xmlns:xlink="http://www.w3.org/1999/xlink" 
	 viewBox="0 0 32 32" xml:space="preserve">
<style type="text/css">
	.st0{fill:none;stroke:#000000;stroke-width:2;stroke-linecap:round;stroke-linejoin:round;stroke-miterlimit:10;}
	.st1{fill:none;stroke:#000000;stroke-width:2;stroke-linejoin:round;stroke-miterlimit:10;}
</style>
<path class="st0" d="M6,24L6,24c-1.1,0-2-0.9-2-2V5c0-1.1,0.9-2,2-2h0c1.1,0,2,0.9,2,2v17C8,23.1,7.1,24,6,24z"/>
<path class="st0" d="M13,23L13,23c-1.1,0-2-0.9-2-2V6c0-1.1,0.9-2,2-2h0c1.1,0,2,0.9,2,2v15C15,22.1,14.1,23,13,23z"/>
<path class="st0" d="M20,22L20,22c-1.1,0-2-0.9-2-2V7c0-1.1,0.9-2,2-2h0c1.1,0,2,0.9,2,2v13C22,21.1,21.1,22,20,22z"/>
<path class="st0" d="M27,21L27,21c-1.1,0-2-0.9-2-2V8c0-1.1,0.9-2,2-2h0c1.1,0,2,0.9,2,2v11C29,20.1,28.1,21,27,21z"/>
<circle class="st0" cx="27" cy="27" r="2"/>
<line class="st0" x1="4" y1="27" x2="25" y2="27"/>
<line class="st0" x1="4" y1="20.9" x2="3" y2="21"/>
<line class="st0" x1="11" y1="20.1" x2="8" y2="20.4"/>
<line class="st0" x1="18" y1="19.3" x2="15" y2="19.6"/>
<line class="st0" x1="25" y1="18.5" x2="22" y2="18.8"/>
<line class="st0" x1="22" y1="8.2" x2="25" y2="8.5"/>
<line class="st0" x1="15" y1="7.4" x2="18" y2="7.7"/>
<line class="st0" x1="8" y1="6.6" x2="11" y2="6.9"/>
<line class="st0" x1="3" y1="6" x2="4" y2="6.1"/>
</svg>